<?xml version="1.0" encoding="UTF-8" standalone="no"?>
<!-- Created with Inkscape (http://www.inkscape.org/) -->

<svg
   xmlns:dc="http://purl.org/dc/elements/1.1/"
   xmlns:cc="http://creativecommons.org/ns#"
   xmlns:rdf="http://www.w3.org/1999/02/22-rdf-syntax-ns#"
   xmlns:svg="http://www.w3.org/2000/svg"
   xmlns="http://www.w3.org/2000/svg"
   xmlns:sodipodi="http://sodipodi.sourceforge.net/DTD/sodipodi-0.dtd"
   xmlns:inkscape="http://www.inkscape.org/namespaces/inkscape"
   width="210mm"
   height="297mm"
   viewBox="0 0 210 297"
   version="1.1"
   id="svg8"
   inkscape:version="0.92.4 (5da689c313, 2019-01-14)"
   sodipodi:docname="logo.svg">
  <defs
     id="defs2">
    <marker
       inkscape:stockid="Arrow1Lstart"
       orient="auto"
       refY="0.0"
       refX="0.0"
       id="marker4921"
       style="overflow:visible"
       inkscape:isstock="true">
      <path
         id="path4919"
         d="M 0.0,0.0 L 5.0,-5.0 L -12.5,0.0 L 5.0,5.0 L 0.0,0.0 z "
         style="fill-rule:evenodd;stroke:#000000;stroke-width:1pt;stroke-opacity:1;fill:#000000;fill-opacity:1"
         transform="scale(0.8) translate(12.5,0)" />
    </marker>
    <marker
       inkscape:stockid="Arrow1Lstart"
       orient="auto"
       refY="0.0"
       refX="0.0"
       id="Arrow1Lstart"
       style="overflow:visible"
       inkscape:isstock="true">
      <path
         id="path823"
         d="M 0.0,0.0 L 5.0,-5.0 L -12.5,0.0 L 5.0,5.0 L 0.0,0.0 z "
         style="fill-rule:evenodd;stroke:#000000;stroke-width:1pt;stroke-opacity:1;fill:#000000;fill-opacity:1"
         transform="scale(0.8) translate(12.5,0)" />
    </marker>
  </defs>
  <sodipodi:namedview
     id="base"
     pagecolor="#ffffff"
     bordercolor="#666666"
     borderopacity="1.0"
     inkscape:pageopacity="0.0"
     inkscape:pageshadow="2"
     inkscape:zoom="0.49497475"
     inkscape:cx="9.8218323"
     inkscape:cy="669.56223"
     inkscape:document-units="mm"
     inkscape:current-layer="layer1"
     showgrid="false"
     inkscape:window-width="1920"
     inkscape:window-height="1001"
     inkscape:window-x="-9"
     inkscape:window-y="-9"
     inkscape:window-maximized="1" />
  <metadata
     id="metadata5">
    <rdf:RDF>
      <cc:Work
         rdf:about="">
        <dc:format>image/svg+xml</dc:format>
        <dc:type
           rdf:resource="http://purl.org/dc/dcmitype/StillImage" />
        <dc:title />
      </cc:Work>
    </rdf:RDF>
  </metadata>
  <g
     inkscape:label="Layer 1"
     inkscape:groupmode="layer"
     id="layer1">
    <g
       id="g847"
       inkscape:export-xdpi="27.32"
       inkscape:export-ydpi="27.32"
       transform="translate(0.43163581,-3.2051322)"
       inkscape:export-filename="C:\Users\kietc\OneDrive\Pictures\random\ig.png">
      <rect
         ry="13.262512"
         transform="matrix(0.78017947,0.62555575,-0.78017947,0.62555575,0,0)"
         y="-7.3070731"
         x="124.88533"
         height="121.24082"
         width="121.24082"
         id="rect819-0"
         style="fill:#f6accc;fill-opacity:1;stroke:#000000;stroke-width:8.0973835;stroke-linecap:round;stroke-linejoin:round;stroke-miterlimit:4;stroke-dasharray:none;stroke-opacity:1" />
      <rect
         ry="13.262512"
         transform="matrix(0.78017946,0.62555576,-0.78017946,0.62555576,0,0)"
         y="-39.938477"
         x="92.254044"
         height="121.24082"
         width="121.24082"
         id="rect819"
         style="fill:#ffffff;fill-opacity:1;stroke:#000000;stroke-width:8.0973835;stroke-linecap:round;stroke-linejoin:round;stroke-miterlimit:4;stroke-dasharray:none;stroke-opacity:1" />
      <path
         inkscape:connector-curvature="0"
         id="path1142"
         d="m 52.881814,111.29321 c 20.50409,0 20.50409,0 20.50409,0 v 0 0"
         style="fill:none;stroke:#000000;stroke-width:7.95647907;stroke-linecap:round;stroke-linejoin:miter;stroke-miterlimit:4;stroke-dasharray:none;stroke-opacity:1" />
      <path
         inkscape:connector-curvature="0"
         id="path1142-8"
         d="m 121.4686,111.29321 c 20.729,0 20.729,0 20.729,0 v 0 0"
         style="fill:none;stroke:#000000;stroke-width:0;stroke-linecap:round;stroke-linejoin:miter;stroke-miterlimit:4;stroke-dasharray:none;stroke-opacity:1" />
      <path
         inkscape:connector-curvature="0"
         id="path1142-3"
         d="m 132.88181,111.29321 c 20.50409,0 20.50409,0 20.50409,0 v 0 0"
         style="fill:none;stroke:#000000;stroke-width:7.95647907;stroke-linecap:round;stroke-linejoin:miter;stroke-miterlimit:4;stroke-dasharray:none;stroke-opacity:1" />
      <path
         sodipodi:nodetypes="ccc"
         inkscape:connector-curvature="0"
         id="path4911"
         d="m 99.193884,77.977577 c 21.202186,0 21.297716,30.509303 0,30.669793 21.564986,-0.29413 20.126196,25.74037 0,25.74037"
         style="fill:none;stroke:#000000;stroke-width:8;stroke-linecap:round;stroke-linejoin:round;stroke-miterlimit:4;stroke-dasharray:none;stroke-opacity:1" />
      <path
         transform="scale(0.26458333)"
         inkscape:connector-curvature="0"
         id="path838"
         d="m 378.3951,817.53163 c -2.53531,-0.68365 -6.96262,-2.58489 -9.83846,-4.22496 C 361.75948,809.4303 82.198304,585.24945 78.307515,580.55514 c -8.002623,-9.65533 -7.283964,-24.23352 1.65964,-33.66623 3.084487,-3.25317 47.598705,-39.10489 48.553415,-39.10489 0.35006,0 30.2508,23.74725 66.4461,52.77166 158.62215,127.19651 147.8961,118.7975 157.71247,123.49643 11.34569,5.43101 19.40719,7.48399 32.34591,8.2374 17.61523,1.02571 37.28971,-3.87435 50.00255,-12.45345 3.05571,-2.06211 52.50634,-41.41064 109.89029,-87.44118 57.38393,-46.03054 104.88764,-83.90417 105.56378,-84.16363 0.67613,-0.25946 12.12811,8.28422 25.44885,18.98595 27.24293,21.88666 29.89545,24.92505 30.63045,35.08623 0.49615,6.85926 -0.98016,12.13292 -4.91321,17.5509 -2.866,3.94807 -282.82891,229.13867 -290.35874,233.5526 -8.59935,5.04085 -22.8634,6.82948 -32.89392,4.1247 z"
         style="fill:none;fill-opacity:1;stroke:none;stroke-width:30.54319572;stroke-linecap:round;stroke-linejoin:round;stroke-miterlimit:4;stroke-dasharray:none;stroke-opacity:1" />
    </g>
  </g>
</svg>
